Genre:Action | Adventure | Thriller
Language:English
IMDb: http://www.imdb.com/title/tt1977681/
Source:BluRay Thanks!

Format : MPEG-4
Format profile : Base Media
Codec ID : isom
File size : 2.06 GiB
Duration : 1h 27mn
Overall bit rate : 3 392 Kbps

Video
ID : 1
Format : AVC
Format/Info : Advanced Video Codec
Format profile : High@L4.1
Format settings, CABAC : Yes
Format settings, ReFrames : 3 frames
Format settings, GOP : M=1, N=13
Codec ID : avc1
Codec ID/Info : Advanced Video Coding
Duration : 1h 27mn
Bit rate mode : Variable
Bit rate : 3 000 Kbps
Maximum bit rate : 15.7 Mbps
Width : 1 280 pixels
Height : 720 pixels
Display aspect ratio : 16:9
Frame rate mode : Constant
Frame rate : 23.976 fps
Color space : YUV
Chroma subsampling : 4:2:0
Bit depth : 8 bits
Scan type : Progressive
Bits/(Pixel*Frame) : 0.136
Stream size : 1.79 GiB (87%)
Writing library : x264


Audio
ID : 2
Format : AAC
Format/Info : Advanced Audio Codec
Format version : Version 4
Format profile : LC
Format settings, SBR : No
Codec ID : 40
Duration : 1h 27mn
Bit rate mode : Variable
Bit rate : 443 Kbps
Maximum bit rate : 519 Kbps
Channel(s) : 6 channels
Channel positions : Front: L C R, Side: L R, LFE
Sampling rate : 48.0 KHz
Stream size : 276 MiB (13%)


Plot:
Alexandra D'Artagnan, junior member of NSA uncovers a conspiracy that the goal is to assassinate the American president..

 
http://img694.imageshack.us/img694/9803/vlcsnap00004i.png
 
http://img38.imageshack.us/img38/3330/vlcsnap00003gp.png
 
http://img641.imageshack.us/img641/428/vlcsnap00002yy.png